<svg xmlns="http://www.w3.org/2000/svg" viewBox="0 0 45 45">
  <g fill="#000" fill-rule="evenodd" stroke="#fff" stroke-width="1.5" stroke-linecap="round" stroke-linejoin="round">
    <g fill="#000" stroke="#fff" stroke-linecap="butt">
      <path d="M9 36c3.39-.97 9.11-1.45 13.5-2.95C25.29 34.34 29.35 35.28 36 36v3H9v-3z" />
      <path d="M15 32c2.5 2.5 12.5 2.5 15 0 .5-1.5 0-2 0-2 0-2.5-2.5-4-2.5-4 5.5-1.5 6-11.5-5-15.5-11 4-10.5 14-5 15.5 0 0-2.5 1.5-2.5 4 0 0-.5.5 0 2z" />
      <path d="M25 8a2.5 2.5 0 1 1-5 0 2.5 2.5 0 1 1 5 0z" />
    </g>
    <path d="M17.5 26h10M21.5 30h2M7.5 40h30" stroke-linecap="round" />
  </g>
</svg>
