<svg xmlns="http://www.w3.org/2000/svg" viewBox="0 0 45 45">
  <g fill="#000" fill-rule="evenodd" stroke="#fff" stroke-width="1.5" stroke-linecap="round" stroke-linejoin="round">
    <path d="M22 10c10.5 1 16.5 8 16 29H15c0-9 10-6.5 8-21" />
    <path d="M24 18c.38 2.32-.46 4.76-2.25 5.26a2.7 2.7 0 0 1-1.25.06c-1.63-.37-2.36-1.92-2-4.24.38-2.32 1.64-4.57 3.25-5s2.73.91 2.25 3.92z" stroke="#000" />
    <path d="M9.5 25.5A4.5 4.5 0 1 1 5 30a4.5 4.5 0 0 1 4.5-4.5z" />
    <path d="M15 15.5a4.5 4.5 0 1 1-4.5 4.5 4.5 4.5 0 0 1 4.5-4.5z" />
  </g>
</svg>
