<svg xmlns="http://www.w3.org/2000/svg" viewBox="0 0 45 45">
  <g fill="#000" fill-rule="evenodd" stroke="#fff" stroke-width="1.5" stroke-linecap="round" stroke-linejoin="round">
    <path d="M8 12a2 2 0 1 1-4 0 2 2 0 1 1 4 0zM32.5 25c-1.5 0-3-.5-3-2h-3c0 2-1.5 4-4 4-2.5 0-4-2-4-4h-3c0 1.5-1.5 2-3 2a3 3 0 1 1 0-6h17a3 3 0 1 1 3 6z" />
    <path d="M9 26c0 9 5 14 13.5 14S36 35 36 26" stroke-linecap="butt" />
    <path d="M9 26c0 2 4.8 2 8 0M36 26c0 2-2.3 2-4.5 0" stroke-linecap="butt" />
    <path d="M11 14h23v8H11z" />
    <path d="M12 14v-4h4.5v4h3.5v-4h5v4h3.5v-4H33v4" />
    <circle cx="22.5" cy="8.5" r="1.5" />
    <path d="M7.5 40h30" stroke-linecap="round" />
  </g>
</svg>
