<?xml version="1.0" encoding="utf-8"?>
<svg version="1.1" id="Layer_1" xmlns="http://www.w3.org/2000/svg" xmlns:xlink="http://www.w3.org/1999/xlink" x="0px" y="0px"
	 viewBox="0 0 923.731 1676.529" enable-background="new 0 0 923.731 1676.529" xml:space="preserve">
<g>
	<path d="M417.831,41.501c40.678-15.457,81.108,25.528,76.589,76.89c36.281,12.496,46.936,36.696,54.72,40.925
		c6.054,3.449,11.716,7.59,16.759,12.392c1.328,1.069,2.597,2.864,4.551,2.397c23.284-2.773,30.497-9.363,37.142,12.233
		c2.305-0.334,4.618-0.693,6.931-1.077c2.62-28.554,16.809-58.66,31.497-83.495c4.409-0.042,8.818-0.042,13.227-0.008
		c-14.792,24.27-29.889,53.952-33.234,82.092c3.616,1.561,7.081,4.142,8.041,8.183c5.261,18.154,8.183,37.025,8.484,55.93
		c0.34,11.246-11.381,11.102-22.813,12.667c-0.376,6.471,1.703,13.527-1.695,19.49c-5.225,10.004-32.333,8.187-40.299,11.473
		c-2.614,2.413-4.543,5.469-7.106,7.95c-1.528,1.687-3.708,3.315-3.424,5.879c-0.143,14.378,2.135,42.2-16.425,73.608
		c-10.713,18.012-26.554,33.101-45.509,42.169c-1.95,0.597-1.732,0.1-1.503,35.372c26.095,0.86,52.156,2.463,78.192,4.325
		c-0.175-10.855-0.326-21.702-0.559-32.558c36.402-18.705,17.709-14.604,79.269-12.333c8.016,13.761,16.258,27.381,24.224,41.167
		c-4.025,4.818-7.983,9.686-11.874,14.621c60.117,26.775,108.574,66.147,144.126,121.722c9.622,14.255,3.081,8.48,13.536,13.219
		c33.232,13.245,47.126,53.721,30.337,84.213c-2.472,3.532-0.484,7.741,0.142,11.523c9.21,44.824,8.734,91.578-1.044,136.269
		c-1.036,3.265,1.737,5.87,3.006,8.617c33.672,61.417-21.543,136.34-91.736,120.111c-7.081-1.687-14.112-3.541-21.176-5.244
		c33.686-35.286,49.517-41.568,44.29-61.458c-3.626-14.639-20.724-22.842-35.272-15.156c-6.621,3.429-23.859,22.556-44.14,41.426
		c-1.837-6.087-3.407-12.25-5.102-18.371c-12.483-45.677,15.395-91.701,60.014-102.634c8.167-28.224,11.073-57.943,8.751-87.227
		c-1.136-5.788,0.614-1.412-8.634-8.952c-22.666-17.913-28.742-49.456-16.868-73.224c0.827-1.887,2.372-4.008,0.96-6.021
		c-11.674-23.322-26.83-45.083-45.442-63.404c-2.046,12.567-4.075,25.151-5.745,37.777c-12.747,6.798-0.581,6.292-35.155,2.104
		c-8.59,72.842-6.934,86.703-25.118,106.057c-1.595,1.996-4.384,3.616-4.142,6.505c-0.078,64.646,1.847,83.815-7.624,113.773
		c-0.267,1.344-1.077,2.856-0.259,4.167c8.509,13.97,12.517,30.211,14.488,46.319c9.553-2.931,19.648-3.307,29.427-5.177
		c5.77-1.253,12.233,0.217,16.208,4.76c9.1,9.365,7.968,64.164,18.104,83.678c8.11,15.221,33.301,163.722,25.343,181.494
		c-1.77,4.267-5.62,7.766-10.338,8.225c-45.474,6.696-42.119,8.234-50.453,2.029c0.493,3.908,0.935,7.824,1.461,11.732
		c8.62,6.311,43.903,107.07,21.201,214.812c-5.67,4.893-13.352,6.973-19.164,11.64c-0.635,3.499-0.601,7.089-0.927,10.638
		c-11.589,157.037-11.778,139.836-7.348,144.21c33.441,27.761,22.184,59.133,21.869,82.501c-57.35,0.008-114.692,0.008-172.041,0
		c-0.192-8.192,0.534-16.425-0.701-24.558c-2.33-17.06,3.282-34.787,14.246-47.939c3.836-5.038,4.073,12.195-9.286-165.862
		c0.139-2.329-0.576-1.668-22.955-15.298c-5.914-232.37,12.135-90.82-12.559-287.326c-17.106,3.92-63.803,2.19-69.132,1.795
		c-26.831,227.241-6.074,24.923-12.993,291.476c-7.474,4.776-15.097,9.336-22.83,13.686
		c-13.305,182.101-13.461,162.149-9.018,167.975c18.62,22.774,13.567,41.441,13.352,69.8H214.401
		c1.377-15.791-12.615-42.748,14.463-73.015c2.998-3.741,6.989-6.472,10.246-9.929c0.435-2.812,0.721,6.377-10.73-150.08
		c-0.79-5.177-3.593-2.945-18.287-12.584c-2.592-1.342-25.458-97.751,15.473-211.497c0.61-2.163,2.772-3.123,4.459-4.292
		c23.298-185.958,20.616-183.289,27.84-198.846c1.136-2.605,2.881-5.319,1.962-8.275c-7.563-32.944-8.628-77.535,0.635-121.113
		c0.426-1.754,0.276-3.566-0.392-5.227c-13.251-35.351-10.632-55.504-10.83-116.829c-37.435-20.484-33.961-53.891-41.601-115.627
		c-26.372,3.377-25.819,3.617-28.182,3.307c-3.031-1.311-5.653-3.399-8.476-5.085c-9.18-61.088-10.235-43.125,2.655-63.98
		c-27.873-23.03-52.223-50.453-70.869-81.474c-2.037-3.95-7.056-4.016-10.546-6.054c-28.736-13.799-40.44-48.688-26.813-76.347
		c1.035-1.812,1.027-3.908,0.443-5.862C53.44,326.322,52.814,274.4,63.544,224.966c0.618-2.012,0.058-4.025-1.094-5.712
		c-33.527-54.795,7.943-128.518,74.886-125.363c12.409,0.443,24.241,4.534,36.232,7.348c-15.044,15.54-36.812,35.478-40.466,40.541
		c-9.291,13.167-4.158,31.351,10.58,37.201c21.206,8.435,30.309-10.875,64.94-42.57c4.194,15.052,18.802,50.781-6.263,87.094
		c-11.356,16.784-29.059,29.001-48.699,33.936c-9.135,31.965-11.624,65.75-7.49,98.734c43.927,27.527,23.141,73.43,22.98,75.27
		c0.918,3.771,16.575,33.977,40.716,59.571c0.476-0.852,0.944-1.703,1.42-2.555c-7.465-9.118-14.98-18.195-22.262-27.456
		c8.125-13.669,16.091-27.439,24.333-41.033c61.375-1.904,42.22-6.379,79.094,12.35c-0.142,9.544-0.392,19.089-0.409,28.633
		c26.42-1.854,52.849-3.515,79.328-4.392c-0.075-10.513,0.259-21.051-0.134-31.556c-2.115-1.244-60.498-22.135-68.89-90.893
		c-1.628-10.146-0.342-20.458-1.127-30.621c-2.463-3.223-5.252-6.296-8.284-8.985c-22.677-5.296-34.506-1.476-38.837-12.96
		c-2.004-5.645-0.643-11.724-0.701-17.561c-13.625-1.946-17.358-1.984-20.074-5.177c-7.741-8.1,2.482-52.769,5.728-63.713
		c3.541-12.147,15.159-6.319,26.512-5.595c5.808-20.706,14.24-15.035,31.948-12.868c6.413-6.789,13.736-12.751,21.895-17.327
		c2.113-1.111,3.966-2.68,5.336-4.651c12.776-17.268,31.005-30.403,51.455-37.009C373.808,83.454,390.685,51.629,417.831,41.501
		 M426.499,50.703l-0.142,0.443c-1.896,0.317-3.724,0.91-5.57,1.411l-0.142,0.601c-11.224,2.632-34.511,24.372-33.092,61.074
		c2.993,0.955,4.691,1.377,7.173,2.305l0.134-0.468c4.806,1.99,8.094,1.972,9.102,2.021l-0.1,0.384
		c38.43,5.734,56.132,0.167,66.393-0.977l0.083-0.585c4.814-0.304,7.785-1.461,12.935-2.772c-0.392-5.987,0.184-12.216-1.937-17.953
		c-0.192-4.885-1.921-9.82-4.25-14.137C476.287,78.054,462.424,45.52,426.499,50.703 M118.489,106.767l0.033,0.384
		c-6.847,1.027-13.21,3.958-19.364,7.006l0.05,0.351c-1.453,0.618-2.839,1.361-4.242,2.063l0.05,0.418
		c-29.923,15.585-44.054,68.003-21.853,97.097c2.133,6.672,22.884,30.725,50.728,33.201l-0.008,0.476
		c6.495,0.305,19.488,1.999,35.322-4.309l0.251-0.71l0.2,0.718c37.216-15.95,51.973-53.036,43.029-85.131
		c-21.577,20.651-34.875,41.143-62.728,31.681c-16.812-6.443-25.859-24.238-22.345-40.641c0.409-2.68,1.637-5.152,2.096-7.808
		c4.795-8.767,6.249-10.131,31.138-34.078C136.874,103.712,125.615,105.836,118.489,106.767 M345.701,148.711
		c15.495-2.776,4.494-2.555,117.364-2.305c56.811,0.32,36.505-0.948,59.471,2.204c-10.668-10.332-24.582-17.599-38.787-21.494
		c-2.68-0.902-5.378,0.259-8,0.777c-29.295,6.59-58.066,6.336-87.895-1.353C372.122,129.714,357.275,137.597,345.701,148.711
		 M362.644,158.113c-60.6,2.943-98.192,69.332-65.057,122.482c0.977,1.42,1.812,3.023,3.223,4.075
		c7.189,12.417,30.217,30.44,58.786,33.034c11.456,0.799,9.349,0.509,115.969,0.509c19.563,0.081,66.812,4.989,93.565-35.272
		c17.796-23.817,22.012-67.654-8.81-100.613c-28.961-28.395-56.729-25.512-122.775-24.391
		C412.579,158.113,387.595,157.571,362.644,158.113 M577.514,184.492c18.55,25.119,23.023,62.079,7.841,94.183
		c7.129-0.933,7.839-1.446,13.653-1.904l0.1-0.409c3.056-0.117,6.071-0.668,9.068-1.278c3.079-13.409-9.146-90.433-14.947-92.931
		C587.96,182.697,582.775,183.841,577.514,184.492 M279.558,185.486c-5.93,3.188-19.28,88.558-14.12,92.981
		c2.055,0.546,17.173,2.787,19.122,2.989c-8.033-16.22-9.929-29.994-9.929-29.994c-1.426-24.22,0.197-43.505,14.697-64.598
		C286.063,186.438,282.848,185.619,279.558,185.486 M616.928,196.249l-0.067,0.451c-2.188-0.058-4.342,0.359-6.471,0.752
		c3.239,12.475,7.634,38.564,8.417,51.822c0.777,0,1.57,0.008,2.363,0.025l0.033-0.434c1.219-0.05,2.447-0.084,3.682-0.109
		l0.1-0.543c2.071-0.05,4.133-0.317,6.213-0.551c-0.204-16.953-3.343-34.927-4.994-39.672l0.234-0.543
		c-1.127-4.008-1.996-8.083-3.19-12.066C621.153,195.74,619.049,196.099,616.928,196.249 M249.739,198.712
		c-0.91,3.29-1.72,6.597-2.664,9.87l0.225,0.501c-2.843,7.826-5.049,27.419-5.511,41.743c1.092,0.165,10.674,1.659,12.667,1.946
		c-0.084-0.526-0.251-1.578-0.334-2.104c1.566-8.38,1.864-22.055,8.451-49.943C258.053,199.92,251.103,198.905,249.739,198.712
		 M73.231,233.75c-1.42,8.534-3.257,17.06-3.716,25.711c4.213,5.024,26.809,25.939,67.729,18.237
		c1.286-6.112,2.605-12.225,4.209-18.262c-31.346,2.32-47.815-9.678-61.116-18.663l0.058-0.501
		C77.882,238.235,75.544,236.005,73.231,233.75 M68.538,266.893c-1.361,15.173-1.587,30.42-0.868,45.618
		c21.54,17.778,41.659,19.23,65.291,11.799c-0.008-13.611,1.161-27.197,3.298-40.633c-16.081,2.995-20.692,1.378-26.796,1.403
		l0.042-0.401c-6.533-0.366-10.239-2.078-15.089-3.065l0.058-0.392C82.322,277.839,71.892,269.17,68.538,266.893 M312.859,312.728
		c-2.243,52.819,30.728,95.161,74,104.821c13.153,2.896,18.681,2.144,73.658,2.23c56.081-0.538,96.65-46.135,95.168-107.084
		c-32.449,21.177-51.27,16.828-121.814,17.01C363.202,329.976,344.027,333.089,312.859,312.728 M68.421,320.744
		c0.877,14.613,3.273,29.109,6.355,43.413c4.613,1.545,4.136-4.231,20.4-11.298c2.739-1.077,5.528-2.071,8.434-2.589l-0.025-0.367
		c10.73-1.449,16.55-2.708,30.654,1.094c-0.626-6.897-1.035-13.803-1.294-20.717c-17.257,5.528-22.377,3.52-29.652,4.083
		l0.017-0.509C87.606,333.578,71.043,322.262,68.421,320.744 M91.543,367.89c-9.154,6.437-14.761,15.033-15.774,18.913
		c-5.683,9.762-5.982,27.614-0.15,37.735c1.152,5.201,11.592,22.152,33.326,26.529c50.682,8.048,71.348-56.579,37.844-79.812
		l0.025-0.626c-12.808-8.224-21.634-12.44-37.894-9.887C102.741,362.011,96.762,364.307,91.543,367.89 M614.965,419.979
		c0.082,1.801-1.566,86.117-1.695,88.263c-0.685,0.768-1.403,1.495-2.171,2.188l-0.493-0.309
		c-6.079,3.424-12.358,6.497-18.362,10.054c0.534,1.002,0.71,2.522,1.862,3.023c3.716,7.54,8.425,14.555,12.617,21.844
		c6.012-2.046,12.225-3.507,18.112-5.929c3.507-0.434,6.772-2.021,10.187-2.931c2.636,10.542,3,12.17,3.382,14.438l0.551,0.134
		c0.212,3.449,9.971,42.495,10.229,43.497c16.308,1.553,32.616,3.165,48.933,4.735c0.083-1.202,0.175-2.396,0.225-3.591l0.434,0.058
		c0.484-6.112,5.42-34.774,5.495-37.635c-0.696-1.553-11.771-17.945-12.467-18.947l-0.409-0.125
		c-3.774-6.964-8.835-13.135-12.91-19.916l-0.418-0.033c-6.325-10.639-14.889-22.229-22.679-34.529
		c1.884-2.222,19.048-23.243,21.277-26.345l0.334,0.292c0.209-0.451,0.635-1.353,0.843-1.804c-1.478-2.639-3.106-5.186-4.492-7.866
		l-0.601-0.134c-1.275-3.285-13.359-23.087-15.365-26.729C645.3,421.02,614.965,419.979,614.965,419.979 M594.557,428.079
		c-2.589,1.361-5.353,2.447-7.699,4.2c0.117,0.392,0.334,1.169,0.451,1.553c-0.233,6.169,0.042,6.462,0.159,22.988
		c4.801,0.017,9.611,0.008,14.421,0.025c-0.161,4.586,1.168,43.961,1.227,45.843c0.534-0.459,1.603-1.386,2.138-1.845
		c0.284-22.228-1.188-76.556-1.202-77.558C600.895,424.906,597.68,426.409,594.557,428.079 M241.247,424.847
		c-8.192-0.192-16.383,0.534-24.575,0.726c-1.599,2.574-9.636,15.83-10.839,18.746c-1.987,2.046-3.181,4.793-4.292,7.407
		l-0.601,0.125c-1.403,2.747-3.148,5.302-4.501,8.075l-0.693,0.2c2.641,3.707,13.157,16.249,22.713,28.199
		c-3.365,5.344-7.248,10.371-10.288,15.916l-0.551,0.142c-5.795,9.386-12.434,18.245-18.07,27.731l-0.401,0.058
		c-3.425,5.523-14.524,21.579-19.54,29.677c0.037,1.493,1.679,13.151,2.706,16.342l-0.476,0.184
		c1.346,5.773,2.548,17.012,3.983,23.84l-0.651,0.334c3.554,0.395,1.296,0.323,49.584-4.309c0.23-1,13.18-54.857,14.196-58.026
		c9.41,2.823,14.975,4.842,27.907,8.659c1.06-0.713,0.591-0.086,15.031-24.709c-2.678-1.467-15.892-8.362-21.085-11.423
		c-0.052-0.197-1.831-83.977-2.154-87.227c0.125-0.367,0.367-1.094,0.484-1.461C253.18,424.254,247.159,424.154,241.247,424.847
		 M482.137,429.039c-10.454,1.92-76.358,4.27-99.369-0.835c-0.05,3.914-0.063,23.026,0.008,28.007
		c14.536-0.795,64.567-1.369,109.473-0.025c-0.008-4.158,0-8.309-0.025-12.459c-3.29,0.818-6.563,1.695-9.904,2.28l-0.017,0.61
		c-1,0.052-44.623,8.799-71.17,2.597c0.05-1.804,0.117-3.599,0.184-5.394c29.951,4.095,62.944,0.171,80.447-6.012
		c1.152-3.549,0.192-7.615,0.443-11.365C488.876,427.386,485.519,428.254,482.137,429.039 M269.605,427.386
		c-0.064,2.337-1.254,71.804-1.044,78.343c0.768,0.459,1.545,0.927,2.321,1.403c-0.021-0.957,1.11-45.12,1.127-46.077
		c4.801-0.175,9.595-0.351,14.388-0.259c0.196-17.792,0.48-18.246,0.008-22.78l0.593-0.184c-0.05-0.493-0.15-1.495-0.2-1.987
		C285.798,435.338,273.563,429.159,269.605,427.386 M123.174,463.025c-2.397,0.142-4.793,0.284-7.19,0.392
		c2.321,3.482,4.325,7.231,7.131,10.346c14.26-0.444,33.759-9.692,39.706-28.834c-0.284-0.66-0.86-1.971-1.144-2.622
		C152.158,453.848,138.062,461.472,123.174,463.025 M154.454,467.459c-10.559,8.649-21.442,10.481-27.573,11.741
		c7.803,11.18,16.856,21.518,24.592,29.627c14.191-9.133,34.925-26.773,25.493-40.858c-1.391-1.964-5.57-8.368-10.354-16.509
		C163.598,457.497,159.564,463.033,154.454,467.459 M404.412,467.075c-27.124,0.14-67.289,1.787-93.632,3.666l0.426,0.159
		c-11.173,0.058-22.387,1.62-33.585,2.163c-0.316,3.623-1.433,37.529-0.877,41.785c5.311,3.26,15.862,8.284,18.863,10.112
		l-0.234,0.643c-3.562,3.338-17.27,32.079-21.318,35.046c-3.651-1.219-24.95-6.04-25.953-6.271
		c-3.682,17.577-7.532,35.13-11.306,52.699c-5.815,0.815-22.664,2.961-23.665,3.09c6.397,63.375,7.782,67.089,11.381,75.771
		c7.074,17.003,20.116,34.433,37.551,40.382c0.301-0.927,0.66-1.829,1.061-2.706c1.912-0.635,3.908-0.985,5.837-1.603
		c12.434,2.555,24.967-0.843,37.46-1.052l0.075-0.276c5.728-0.159,11.432-0.81,17.16-1.136
		c147.505-9.97,277.765,3.332,277.765,3.332l0.159-0.509c21.207-0.986,43.718-21.162,46.92-46.979
		c1.477-12.076,7.721-67.024,8.133-69.784c-1-0.117-17.222-2.05-19.715-2.881c-0.671-3.747-10.451-49.223-11.482-52.857
		c-0.284,0.284-0.852,0.835-1.144,1.119c-7.774,1.119-15.314,3.524-23.022,5.052l-0.075,0.384c-0.651,0.017-1.937,0.05-2.58,0.075
		c-5.286-10.171-10.48-20.408-16.191-30.328l0.192-0.351c-1.027-1.595-1.896-3.282-2.772-4.952
		c8.481-5.564,3.285-2.407,17.628-10.079c-0.117-12.45-0.668-24.892-0.877-37.343c-33.563-2.614-35.727-2.75-39.455-2.313
		C555.444,469.008,433.16,465.377,404.412,467.075 M177.76,493.888c-6.246,7.641-13.978,13.887-22.245,19.214
		c7.165,7.181,14.388,14.413,22.521,20.5l-0.025,0.635c0.534,0.309,1.595,0.919,2.129,1.227
		c0.278-0.433,22.607-33.967,23.105-34.679c-10.254-11.09-16.448-19.287-18.412-21.803
		C183.522,484.41,180.632,489.186,177.76,493.888 M665.393,480.986c-0.827,1.328-2.488,2.38-2.68,3.966
		c6.972,10.622,14.079,21.16,21.201,31.689c0.217-1.186,0.559-2.355,0.66-3.549c2.789-6.405,6.53-12.375,11.515-17.31
		C691.25,492.941,679.464,486.912,665.393,480.986 M688.481,523.322c0.84,1.781,11.807,18.247,14.404,21.469
		c1.303,3.19,4.902,5.094,7.423,7.407c1.227,1.904,3.073,3.298,4.718,4.835c2.566-20.493,10.652-28.949,21.978-34.612
		c-17.159-13.305-32.062-21.542-35.422-23.782C694.611,504.993,688.874,513.669,688.481,523.322 M735.894,529.268
		c-11.007,7.536-15.119,19.638-15.431,33.142c0,0,4.788,5.253,18.529,22.02c3.004-14.358,16.842-26.261,29.285-34.136
		c-10.204-10.539-23.741-22.007-25.811-23.364C740.12,527.172,738.04,528.391,735.894,529.268 M277.621,542.637
		c-2.204,3.966-4.927,7.682-6.613,11.916c2.657-1.644,14.964-25.236,15.866-27.097C283.491,532.316,280.769,537.618,277.621,542.637
		 M594.173,535.096c0.846,2.244,6.451,13.965,8.609,15.415C600.578,545.05,597.02,540.24,594.173,535.096 M630.28,543.138
		c0.176,2.61,0.239,3.007,11.139,52.29c0.159,1.478,0.969,2.513,2.505,2.789C643.705,597.212,632.426,546.554,630.28,543.138
		 M240.855,555.914c-3.641,15.264-7.448,30.495-10.755,45.843c0.476-0.025,1.428-0.075,1.904-0.1
		c4.967-23.568,11.381-49.871,11.381-54.427C242.066,549.96,241.665,553.008,240.855,555.914 M766.356,558.444
		c-9.436,6.702-19.557,16.357-21.853,27.648c-0.98,7.151-0.737,4.322,12.751,25.903c7.254-16.607,22.13-24.78,39.789-27.756
		c-15.422-19.938-17.061-21.524-24.775-29.71C770.298,555.83,768.335,557.149,766.356,558.444 M796.159,590.108
		c-16.13,3.103-28.921,11.257-34.662,26.646c-0.893,1.87,0.326,3.708,1.002,5.428c14.484-15.237,29.085-19.144,46.486-20.174
		c-2.505-4.267-5.361-8.317-8.091-12.442C799.307,589.716,797.728,589.891,796.159,590.108 M796.985,614.867
		c-37.298,9.241-49.434,53.769-27.339,77.867l-0.075,0.518c2.847,3.051,6.964,7.747,11.415,9.937l-0.033,0.518
		c21.934,12.083,37.307,9.769,58.068-3.323l-0.025-0.61c24.311-17.013,26.415-64.484-12.885-82.484
		c-3.499-1.244-7.031-2.639-10.78-2.797l-0.008-0.384C809.509,613.891,806.48,612.957,796.985,614.867 M844.382,710.712
		c-6.402,4.659-16.117,9.692-23.865,10.755l-0.017,0.476c-7.941,0.704-15.777,2.611-30.328-1.495
		c0.276,4.209,0.342,8.425,0.618,12.634c14.176-4.475,18.942-3.864,29.502-4.016l-0.008,0.476
		c8.497,0.152,21.263,3.963,35.188,13.469c-0.952-12.584-2.781-25.084-5.152-37.468C848.34,707.263,846.336,708.958,844.382,710.712
		 M602.515,733.926c-5.511,0.752-11.031-0.1-16.55-0.15c-0.11,25.774,7.037,96.694-60.122,134.849
		c-30.328,16.632-51.063,13.264-93.883,13.461c-16.986,0.021-61.425,4.389-97.465-35.013
		c-37.454-40.793-32.625-84.049-32.625-114.491c-7.079,0.424-4.592,0.682-7.674,0.234l0.042,0.61
		c-8.32-0.209-16.074,3.137-33.493-1.954c0,77.089-0.675,60.683,4.426,89.833l0.484,0.117c0.451,4.442,2.163,8.609,3.415,12.868
		c17.46,49.979,54.029,75.87,58.669,77.282c1.678,1.486,3.574,2.706,5.52,3.833c38.175,22.803,69.931,18.401,88.021,18.83
		c69.658-0.223,117.852,8.206,167.933-48.231c40.345-43.001,39.38-100.651,37.81-159.967
		C619.358,729.967,611.149,733.091,602.515,733.926 M376.197,728.013c-18.438,0.676-40.687,1.917-62.786,3.599
		c-0.075,3.741-0.067,7.482-0.042,11.231c79.405-5.828,136.566-13.834,260.864,1.194c0.1-3.758,0.075-7.515,0.058-11.265
		C554.087,730.039,463.206,724.694,376.197,728.013 M805.336,735.337c-6.774,1.135-9.614,2.12-14.563,3.799
		c0.008,13.594-1.152,27.18-3.298,40.599c20.196-3.941,29.151-0.423,36.366,0.326l0.017,0.509
		c10.727,1.996,21.356,9.072,25.31,11.248c1.637,1.987,4.008,3.215,6.046,4.768c1.294-15.223,1.678-30.529,0.802-45.785
		C840.444,738.414,825.176,732.908,805.336,735.337 M409.948,741.625c-27.063,1.095-69.606,3.152-96.58,7.139
		c0.017,6.413-0.117,12.834,0.092,19.256c22.368-2.559,62.677-6.144,70.468-5.687l-0.025-0.526
		c18.824,0.815,74.16-6.782,190.329,7.29c0.117-6.421,0.125-12.851-0.008-19.264C488.81,738.74,449.174,741.773,409.948,741.625
		 M409.932,766.717c-52.696,1.571-86.217,5.982-95.845,6.881c0.276,6.772,1.779,13.436,3.507,19.974
		c26.634-3.142,73.59-6.605,89.732-6.171l-0.033-0.559c0,0,48.87-0.555,66.911,0.351c29.762,1.035,61.492,3.632,61.492,3.632
		l0.008,0.501c11.107,0.324,32.056,4.323,34.002,3.415c2.071-6.446,3.298-13.185,3.9-19.924
		C508.955,766.345,471.06,765.797,409.932,766.717 M786.405,785.806c-1.136,6.121-2.564,12.175-4.075,18.204
		c33.08-2.521,50.581,11.87,58.82,16.784l-0.008,0.626c3.39,2.313,6.196,5.336,9.302,8c1.637-8.409,3.206-16.884,3.799-25.435
		C844.486,792.459,817.244,778.016,786.405,785.806 M421.33,792.545c-1.011-0.03-42.834,0.007-102.016,6.53
		c2.472,6.772,4.818,13.862,9.269,19.623l0.025-0.91c115.736-10.908,145.347-8.399,231.02,1.202
		c3.056-5.912,6.171-11.849,8.091-18.245C520.601,793.839,454.048,791.026,421.33,792.545 M750.624,827.015
		c-7.659,5.17-10.87,8.934-15.248,13.444l0.067,0.509c-11.041,10.623-21.565,37.323-14.438,64.197
		c3.314-3.314,7.954-7.649,8.96-8.542l-0.042-0.451c11.524-9.977,25.914-31.566,52.273-23.314
		c21.682,7.475,34.653,33.615,14.738,59.688c-8.317,7.524-16.016,15.715-24.174,23.414c8.977,2.38,18.362,2.48,27.548,1.52
		l0.008-0.434c4.618,0,8.927-1.862,13.377-2.822l0.017-0.501c12.891-2.578,26.327-16.376,31.18-21.093l-0.025-0.668
		c21.253-20.033,27.561-75.855-15.164-104.721C803.804,810.144,772.912,812.263,750.624,827.015 M419.777,816.752
		c-1.923,0.01-29.766,0.581-31.264,1.612c-9.952-0.624-47.276,3.716-57.609,4.985c4.476,7.048,9.544,13.903,15.924,19.348
		c73.67-14.71,170.132-2.651,171.223-2.597l-0.008,0.509c7.206,0.353,16.32,2.793,21.577,3.19
		c2.64-1.146,12.45-12.433,16.425-19.465C497.799,816.109,438.355,815.335,419.777,816.752 M429.455,841.16
		c-4.853-0.221-40.371,0.831-77.583,6.446c32.862,27.279,59.683,22.649,99.477,23.03c25.867-0.329,39.803,2.132,66.619-10.772
		l0.033-0.668c5.97-2.246,11.148-6.229,16.008-10.279C510.7,842.982,453.883,839.938,429.455,841.16 M624.501,850.646
		c-0.351,1.219-0.91,2.422-0.952,3.724c-1.705,2.858-18.368,38.921-46.294,59.103l-0.033,0.576
		c-3.94,2.456-16.513,12.211-26.387,16.367l-0.075,0.484c-3.415,1.161-6.555,2.998-9.987,4.108l-0.05,0.543
		c-4.486,0.897-19.116,8.138-44.265,9.979c-8.868,0.401-34.899,0.157-66.093,0.225c-40.801,0.059-62.949,2.595-105.757-21.778
		l0.075-0.443c-3.769-1.944-33.066-19.381-55.538-59.705c-5.781,33.159-5.649,74.296,2.797,107.786
		c100.335,9.622,99.895,43.366,112.996,83.369c10.366,30.154,29.135,28.701,58.051,29.393c22.312-0.35,41.261,2.191,55.705-9.227
		c11.751-9.095,18.324-29.535,19.089-34.512c9.917-22.441,12.155-73.667,101.615-84.756c3.048-0.459,6.263-0.326,9.185-1.369
		C636.684,924.354,638.561,878.382,624.501,850.646 M669.509,890.945c-1,0.159-12.543,1.93-17.928,2.63
		c-4.903,2.848-3.802,1.255,6.346,69.182c3.707-0.563,5.305-0.817,7.549-1.035c-6.673-44.93-8.665-50.398-4.902-55.429
		c2.021-1.108,5.452-0.817,11.381-2.179c2.288-0.234,3.933,1.194,5.336,2.806c0.301,2.539,1.612,4.885,1.929,7.457
		c2.28,14.705,4.334,29.443,6.664,44.148c2.505-0.417,5.019-0.843,7.54-1.211C682.228,881.563,687.085,888.364,669.509,890.945
		 M643.173,941.706c-0.91,5.586-2.113,11.123-3.574,16.6c2.513,3.373,4.008,7.448,6.972,10.48
		C647.371,964.777,643.383,942.709,643.173,941.706 M619.157,967.559c-27.813,3.732-59.041,12.82-73.391,37.05
		c-12.945,10.668-16.171,66.431-44.19,82.551c-1.086,0.894-3.273,1.378-2.931,3.19c0.288,2.668,9.492,79.526,11.891,96.379
		c22.031-16.284,44.079-41.065,98.843-39.054l-0.092,0.359c8.388,0.263,21.266,4.048,24.349,4.626l-0.1,0.351
		c8.842,1.908,27.61,10.71,28.809,11.223c-0.681-7.696-20.102-166.522-20.5-169.787c-1.919-12.772-7.457-23.973-10.997-27.965
		C626.923,966.373,623.04,967.125,619.157,967.559 M691.93,968.987c-1.386,0.167-2.756,0.342-4.133,0.459l-0.042,0.468
		c-4.201-0.053-14.494,2.304-21.627,2.856l-0.075,0.534c-3.182-0.017-7.05,0.411-10.513,1.52
		c-1.743,3.649,23.538,172.962,27.172,176.768c3.328-0.161,20.663-3.298,25.51-3.591l0.05-0.551
		c2.973,0.129,13.798-1.782,15.097-2.029c3.238-6.865-1.272-44.289-2.33-50.352c0.954-6.675-16.445-116.985-24.141-125.781
		C695.654,967.726,693.55,968.928,691.93,968.987 M267.96,982.756c-4.661,10.806-3.354,2.992-25.652,187.798
		c4.484-2.079,8.876-4.376,13.561-5.962l0.05-0.476c52.406-17.074,82.588-18.053,138.632,28.909
		c4.512-34.221,6.05-49.561,12.367-99.953C341.553,1070.644,408.857,989.647,267.96,982.756 M571.752,1162.789
		c-25.04,7.633-50.075,28.415-59.362,38.086c-0.635,9.319-0.509,18.746-0.727,28.115c44.058-33.161,82.232-40.449,105.047-36.875
		l0.217-0.401c18.9,3.648,1.549-1.56,36.524,8.108l0.175,0.493c8.776,2.664,16.818,7.148,25.134,10.922
		c-2.104-9.628-5.411-18.947-8.501-28.282c-0.996-4.607-32.545-17.549-37.986-18.245l-0.058-0.576
		C620.178,1161.224,599.89,1154.098,571.752,1162.789 M297.729,1165.044c-12.092,1.292-24.215,4.487-33.643,8.392
		c-0.184-2.463,0.952-4.693,1.854-6.889c-11.465,4.05-22.462,9.327-33.101,15.189c-4.383,1.879-12.977,36.427-13.728,39.814
		c2.63-1.336,5.211-2.764,7.883-4.008l0.017-0.509c80.924-40.671,122.114-7.78,154.247,8.793l0.05,0.635
		c4.309,2.488,8.1,5.77,12.258,8.5c-0.665-18.533-0.232-16.25-0.76-27.631c-0.284-0.351-0.852-1.052-1.136-1.403l0.033-0.401
		C380.495,1197.035,346.36,1160.371,297.729,1165.044 M598.365,1203.079l0.058,0.384c-13.098,0.168-29.479,6.208-33.009,7.198
		l0.042,0.484c-4.685,0.876-19.756,8.467-21.435,10.045c-13.607,7.068-30.643,20.573-32.641,22.955
		c-0.418,7.415-0.234,14.855-0.484,22.279c85.337-36.666,119.784-24.999,133.421-25.477l0.058,0.509
		c5.81,0.264,21.703,2.881,43.305,10.83c-1.42-8.342-2.463-16.851-4.977-24.934c-13.138-9.31-35.14-18.081-40.232-18.663
		l-0.008-0.534c-3.065-0.584-6.021-1.703-9.152-1.929l-0.075-0.493C619.152,1204.027,631.465,1203.533,598.365,1203.079
		 M288.66,1209.3c-2.806,0.251-5.603,0.626-8.417,0.869v0.501c-2.505,0.017-4.952,0.534-7.432,0.818l-0.075,0.543
		c-3.207,0.184-6.229,1.336-9.361,1.937l0.017,0.509c-5,0.664-10.672,3.568-16.425,5.419l-0.109,0.534
		c-8.835,3.19-16.943,8.117-24.951,12.968l-0.134,0.701c-1.061,0.351-2.113,0.752-3.156,1.152c-0.818-0.743-1.628-1.47-2.447-2.163
		c-1.962,9.202-3.783,18.446-5.077,27.773c15.231-5.734,34.64-12.858,51.154-13.586l0.008-0.392
		c3.029-0.07,19.474-1.869,32.925-0.994c2.722,0.092,5.461,0.501,8.192,0.217l-0.017,0.493c31.35,1.162,67.761,15.972,71.395,17.051
		l-0.067,0.409c6.149,1.996,13.014,5.792,19.348,8.142c0.823-25.891,1.448-21.615-17.853-35.698
		c-7.317-4.985-20.035-13.082-28.441-15.949l-0.017-0.476c-5.135-1.996-10.229-4.108-15.44-5.895l-0.109,0.751l-0.342-0.651
		C319.889,1210.235,304.495,1208.064,288.66,1209.3 M600.352,1251.812c-28.8,2.95-46.932,10.136-52.398,11.398l0.017,0.526
		c-7.551,1.355-29.979,11.982-37.267,15.531c-0.15,6.071-0.033,12.141-0.067,18.212c5.174-1.101,22.093-4.564,27.372-5.052
		l-0.042-0.451c1.016-0.047,55.428-8.583,76.33-7.357l-0.05-0.484c6.113,0.666,38.417-1.282,77.558,6.588
		c-0.526-8.392-0.91-16.851-2.346-25.134C669.356,1255.551,638.386,1248.721,600.352,1251.812 M268.561,1257.774
		c-10.967,1.061-15.149,2.27-20.032,2.881l-0.067,0.551c-11.667,0.569-33.687,11.643-39.104,11.799
		c-0.76,8.267-1.695,16.525-1.887,24.834c52.932-9.854,71.494-6.802,85.465-7.54l-0.067,0.417
		c19.042-1.538,77.608,8.001,78.61,8.083l-0.042,0.392c5.663,0.619,10.003,1.852,23.047,4.234
		c0.184-6.029-0.217-12.058-0.209-18.087C353.434,1265.717,315.36,1253.678,268.561,1257.774 M603.308,1296.127
		c-33.457,1.734-54.377,6.084-60.055,6.53l-0.017,0.468c-4.301,0.034-27.73,4.792-32.792,6.004c0,7.983-0.134,15.983,0.083,23.974
		c10.428,0.32,27.68,1.452,33.318,0.651l-0.033,0.609c0.001,0,109.063-1.712,109.063-1.712l-0.092-0.635
		c3.115,0.562,32.166-0.373,39.063-0.334c0.61-9.695,0.66-19.414,0.534-29.126C676.094,1298.238,641.129,1294.241,603.308,1296.127
		 M264.361,1302.047c-21.136,0.958-24.357,2.344-33.986,2.964l0.017,0.443c-4.974,0.376-9.691,1.298-23.406,4.125
		c-0.284,9.319,0.084,18.646,0.459,27.965c47.28,1.639,139.917,4.022,187.039,1.52c0.05-8,0.075-15.991,0-23.982
		c-55.225-11.953-98.467-13.857-101.799-12.918l0.276-0.534C280.735,1301.893,279.843,1301.304,264.361,1302.047 M655.013,1343.673
		c-122.197,3.689-130,0.763-144.385,0.827c0.017,1.015-0.017,24.119,0.376,29.635c55.427,36.306,104.412,44.937,162.756,11.24
		c14.347-7.425,11.932-6.235,13.043-10.271c1.745-10.597,3.257-21.243,4.175-31.948
		C685.318,1342.865,656.013,1343.644,655.013,1343.673 M208.314,1348.984c0.969,13.202,3.023,26.295,5.403,39.313
		c7.515,4.292,14.93,8.918,22.997,12.091c2.369,1.984,12.576,6.424,15.632,6.889c5.871,2.903,27.661,10.262,33.351,8.501
		c3.816-1.077,7.716-1.82,11.507-2.973c14.064-0.032,29.88-2.238,34.437-3.541c8.375,0.309,16.525-1.887,24.709-3.315l0.134-0.509
		c9.461-2.288,18.838-6.422,25.944-13.21l0.585-0.083c2.296-2.138,4.426-4.442,6.455-6.83c-0.86-0.242-1.72-0.451-2.58-0.618
		c2.305-1.687,5.603-2.58,7.206-4.902c0.576-9.787,0.075-19.607,0.443-29.401C328.094,1353.605,269.411,1349.249,208.314,1348.984
		 M534.861,1400.94c2.723,38.597,8.009,110.392,10.897,147.8c25.591-19.498,52.09-20.484,80.906-17.16
		c4.126,1.651,12.147,1.881,28.024,10.463c1.378-20.971,9.639-132.917,10.221-139.292c-29.725,10.486-43.947,18.688-86.192,13.185
		l0.025-0.434C564.788,1413.84,547.623,1406.764,534.861,1400.94 M356.991,1412.814c-11.459,4.438-27.901,9.508-40.157,10.054
		l0.008,0.568c-4.993-0.234-9.962,0.584-14.955,0.351c-5.611-0.008-11.164-0.96-16.776-0.96l-0.008-0.593
		c-18.141-2.016-38.024-10.959-44.582-13.31c0.035,8.598,0.111,3.51,9.945,139.066c3.965-2.05,6.641-3.577,11.006-5.044l-0.05-0.443
		c2.33-0.66,4.793-1.077,6.897-2.313c31.591-7.269,35.789-3.653,42.553-4.309l-0.017,0.501c12.07,0.175,33.293,6.804,48.549,18.329
		c0.078-1.076,10.855-147.817,10.855-147.817C365.834,1408.873,361.391,1410.793,356.991,1412.814 M589.881,1542.444
		c-29.572,3.65-65.115,29.157-60.648,66.602c4.01,0.173,147.621,0.239,152.218-0.1c0.182-7.745,1.94-22.496-12.434-40.44
		c-12.012-13.498-25.036-19.558-29.836-20.7l-0.008-0.501C635.747,1546.263,614.964,1537.852,589.881,1542.444 M230.3,1583.603
		c-6.054,9.094-7.899,20.734-6.346,31.447c3.658-0.053,146.503-0.042,151.658-0.042c4.719-29.908-21.211-64.189-71.236-67.788
		C257.964,1545.37,232.346,1575.458,230.3,1583.603z"/>
	<path d="M485.794,179.139c38.78-7.955,72.227,20.588,74.117,56.156c2.114,31.943-22.099,63.913-60.097,64.99
		C426.569,301.369,413.585,194.723,485.794,179.139 M443.316,237.859c-1.532,60.074,83.884,79.213,106.75,21.945
		c10.738-26.091,0.203-59.852-32.023-72.773C482.42,173.579,443.812,200.155,443.316,237.859z"/>
	<path d="M337.142,187.273c47.604-28.324,106.06,15.789,90.542,69.909c-7.552,25.644-31.533,46.64-68.08,43.371
		C305.71,290.83,286.191,223.07,337.142,187.273 M313.444,238.685c-0.699,20.919,11.727,37.342,16.625,40.132
		c3.207,4.142,7.724,7.031,12.242,9.578c58.693,32.47,114.201-50.105,60.515-92.179c-1.052-0.777-2.213-1.386-3.374-1.971
		c-2.455-2.68-5.937-4.083-9.185-5.536C353.865,173.195,313.616,200.763,313.444,238.685z"/>
	<path d="M92.086,191.64c2.604-3.906-0.61-3.098,20.216-3.056c4.34,7.539,6.367,10.933,9.135,15.874
		c-2.989,5.311-6.104,10.563-9.135,15.857c-6.188-0.042-12.375,0.092-18.554-0.092c-2.527-4.97-4.63-8-8.952-15.765
		C87.473,199.603,89.069,197.211,92.086,191.64 M97.338,194.304c-2.004,3.348-4,6.705-5.829,10.154
		c1.837,3.432,3.824,6.789,5.803,10.146c3.875,0.083,7.749,0.092,11.624,0c1.971-3.365,3.983-6.714,5.812-10.154
		c-1.854-3.432-3.833-6.797-5.837-10.137C105.054,194.203,101.196,194.212,97.338,194.304z"/>
	<path d="M100.085,197.31c5.152-2.388,11.64,2.313,10.705,7.975c-0.276,6.012-8.417,9.152-12.743,5.052
		C93.747,206.929,94.891,199.205,100.085,197.31 M100.603,204.407c0.843,1.227,2.388,3.19,3.875,1.545
		c1.862-1.428-0.1-3.123-1.353-4.033C102.248,202.704,101.405,203.531,100.603,204.407z"/>
	<path d="M134.079,216.19c1.678-2.797,3.014-5.879,5.386-8.183c5.887,0.426,11.807,0.125,17.711,0.167
		c7.246,12.622,7.436,12.786,8.776,15.59c-1.554,4.286-3.094,5.89-8.843,16.2c-5.895,0.058-11.799-0.242-17.686,0.167
		c-2.518-2.764-9.296-14.879-9.511-16.375C131.006,221.083,132.702,218.711,134.079,216.19 M142.004,213.985
		c-1.754,3.273-3.991,6.304-5.369,9.77c0.985,3.799,3.708,6.881,5.378,10.404c3.908,0.142,7.824,0.125,11.741,0.042
		c1.829-3.499,4.426-6.68,5.545-10.488c-1.545-3.415-3.674-6.513-5.495-9.77C149.87,213.868,145.928,213.843,142.004,213.985z"/>
	<path d="M146.054,216.507c10.251-2.704,13.636,13.275,3.482,15.081C139.804,234.041,136.215,218.442,146.054,216.507
		 M145.837,223.763c-0.443,2.154,2.923,3.348,3.9,1.311c0.952-1.052-0.484-2.338-0.726-3.407
		C147.941,222.143,145.803,222.219,145.837,223.763z"/>
	<path d="M409.539,341.803c47.123-3.723,93.46,0.465,138.648,16.383c-8.388,23.277-28.68,46.337-56.874,56.557
		c-17.51,6.336-28.693,4.948-79.219,5.027c-44.722,0.706-76.262-24.721-90.2-57.517
		C349.622,351.427,376.356,344.692,409.539,341.803 M327.94,363.623c34.84,61.381,68.467,54.053,136.778,53.601
		c32.027-0.21,65.433-20.054,80.914-57.584C460.815,328.561,353.328,348.182,327.94,363.623z"/>
	<path d="M406.525,352.592c3.316-0.568,0.844-0.262,57.367-0.351c20.248-0.372,33.299,23.544,21.535,40.775
		c-9.606,14.676-19.881,11.632-75.061,11.632c-13.168,0-24.834-11.715-25.193-24.817
		C384.171,367.088,393.958,354.721,406.525,352.592 M409.072,354.713c-0.167,1.286-0.334,2.572-0.501,3.866
		c-0.384,0.259-1.152,0.777-1.536,1.035c-19.754,3.627-20.185,34.064,1.637,37.994c-0.058,1.57,0.109,3.131,0.234,4.71
		c3.799,0.234,7.615,0.234,11.423,0.033c-0.017-1.495-0.033-2.981-0.042-4.459c3.657-0.192,7.332-0.192,10.989,0
		c0,1.503,0.025,3.006,0.05,4.518c3.649,0.142,7.315,0.125,10.964-0.1c0.134-1.495,0.284-2.981,0.326-4.467
		c3.682-0.109,7.365-0.15,11.047,0.058c0.025,1.495,0.092,3.006,0.159,4.509c3.582,0.125,7.173,0.134,10.764-0.033
		c0.15-1.319,0.317-2.63,0.493-3.941c0.668-0.359,1.344-0.71,2.021-1.06c20.766-3.593,20.843-34.199,0.083-37.961
		c-0.71-0.301-1.419-0.601-2.121-0.893c-0.184-1.294-0.359-2.58-0.518-3.866c-3.549-0.284-7.114-0.276-10.663-0.033
		c-0.075,1.47-0.15,2.939-0.192,4.417c-3.708,0.008-7.415-0.008-11.114,0.025c-0.042-1.461-0.184-2.906-0.309-4.35
		c-3.616-0.342-7.256-0.359-10.88-0.084c-0.033,1.461-0.058,2.923-0.067,4.392c-3.691,0.033-7.373,0.033-11.056-0.008
		c0.008-1.445,0.017-2.881,0.033-4.325C416.562,354.362,412.804,354.337,409.072,354.713z"/>
	<path d="M409.072,354.713c3.733-0.376,7.49-0.351,11.223-0.025c-0.073,6.278-0.132,32.819,0.033,47.664
		c-3.808,0.2-7.624,0.2-11.423-0.033c0,0,0.176-34.848-0.042-42.904c-0.459,0.05-1.369,0.15-1.829,0.2
		c0.384-0.259,1.152-0.777,1.536-1.035C408.738,357.285,408.905,355.999,409.072,354.713z"/>
	<path d="M431.384,354.629c3.624-0.276,7.265-0.259,10.88,0.084c0.433,4.997,0.528,41.975,0.025,47.597
		c-3.649,0.225-7.315,0.242-10.964,0.1C431.297,400.729,431.237,361.029,431.384,354.629z"/>
	<path d="M453.879,354.621c3.549-0.242,7.114-0.25,10.663,0.033c0.159,1.286,0.334,2.572,0.518,3.866
		c0.701,0.292,1.411,0.593,2.121,0.893c-0.526-0.025-1.587-0.075-2.121-0.1c-0.199,6.086-0.233,34.38,0.1,38.211
		c0.484-0.042,1.453-0.109,1.937-0.15c-0.676,0.351-1.353,0.701-2.021,1.06c-0.175,1.311-0.342,2.622-0.493,3.941
		c-3.591,0.167-7.181,0.159-10.764,0.033C453.553,396.382,453.48,362.433,453.879,354.621z"/>
	<path d="M103.526,386.068c5.456-0.025,15.177,0.018,23.398-0.008c8.194,14.384,8.741,15.106,11.699,20.375
		c-0.573,1-9.295,16.034-11.523,20.082c-5.899,0.092-20.392,0.076-23.723,0.017c-3.465-6.004-6.739-12.125-10.555-17.92
		c-0.342-1.403-0.367-2.847-0.1-4.259C96.645,398.452,99.935,392.172,103.526,386.068 M102.999,398.903
		c-0.735,0.685-1.261,1.587-1.52,2.564c-1.136,1.603-2.146,3.298-3.115,5.019c0.935,1.47,1.87,2.948,2.856,4.392
		c0.376,1.194,1.027,2.313,1.854,3.265c1.052,2.221,2.096,4.501,3.708,6.388c1.373,0.587,9.633,0.521,11.073,0.1
		c1.954,0.175,4,0.593,5.92-0.017c0.91-1.253,1.461-2.714,2.012-4.142c2.112-1.906,1.131-1.952,6.279-9.97
		c-0.893-1.486-1.804-2.956-2.797-4.376c-0.342-1.194-0.969-2.305-1.804-3.223c-1.219-2.447-2.288-5.102-4.309-6.998
		c-1.336-0.167-14.868-0.116-15.824,0.008C105.229,393.742,104.235,396.473,102.999,398.903z"/>
	<path d="M111.091,397.909c5.962-3.148,13.945,1.854,13.544,8.618c0.276,7.056-8.476,11.816-14.329,7.933
		C104.01,411.036,104.536,400.757,111.091,397.909 M114.323,402.761c-2.948,0.568-3.941,4.86-1.428,6.588
		c1.82,1.678,4.977,0.735,5.795-1.536C119.976,405.232,117.036,401.842,114.323,402.761z"/>
	<path d="M329.468,517.085c10.931-3.052,9.188-2.633,117.614-2.43c81.037,0.328,86.229-2.234,104.22,6.238
		c22.068,10.323,37.802,32.996,37.835,59.321c0.072,24.528,5.229,61.545-32.007,83.854c-22.995,13.691-24.985,8.252-193.293,9.26
		c-11.477-0.027-57.092,5.497-76.798-39.13c-6.79-15.487-5.485-26.935-5.628-39.155
		C281.508,590.085,274.664,532.809,329.468,517.085 M310.045,540.841c-20.352,18.163-17.178,43.055-17.335,53.567
		c0.161,10.561-2.173,29.458,11.315,46.144c5.274,7.709,15.864,15.694,27.665,19.281c11.874,3.172-3.385,2.205,183.949,2.205
		c43.628,1.619,61.281-29.33,62.135-51.797c0.109-10.555,0.058-21.118,0.025-31.673c-0.518-22.003-15.849-42.804-36.825-49.576
		c-16.386-6.259-131.241-1.902-193.159-3.09C333.16,525.903,319.061,531.898,310.045,540.841z"/>
	<path d="M612.118,517.845c3.123-0.067,6.246-0.05,9.369-0.05c1.628,2.839,3.649,5.553,4.376,8.81
		c-1.57,2.238-2.839,4.651-4.3,6.956c-2.989,0.075-5.987,0.276-8.968-0.017c-1-0.922-5.706-6.875-4.359-8.743
		C609.362,522.396,610.849,520.174,612.118,517.845 M611.057,525.752c0.902,1.578,1.737,3.206,2.814,4.693
		c1.921,0.568,3.983,0.234,5.97,0.317c0.893-1.62,1.896-3.182,2.622-4.885c-0.526-1.804-1.586-3.415-2.68-4.918
		c-1.812-0.434-3.707-0.351-5.536-0.167C612.886,522.229,612.051,524.057,611.057,525.752z"/>
	<path d="M249.973,525.802c0.927-1.311,1.453-3.031,2.839-3.916c2.939-0.326,5.904-0.117,8.86-0.125
		c2.791,4.87,3.924,6.544,4.242,8.225c-1.119,2.756-2.831,5.211-4.259,7.808c-3.106,0.042-6.221,0.033-9.327,0.017
		c-1.478-2.68-2.998-5.336-4.551-7.958C248.495,528.491,249.222,527.138,249.973,525.802 M254.132,525.001
		c-1.177,1.461-2.221,3.106-2.739,4.918c0.777,1.779,1.887,3.39,2.898,5.044c1.879-0.033,3.749-0.05,5.628-0.058
		c0.893-1.637,1.896-3.215,2.63-4.927c-0.451-1.979-1.737-3.624-2.705-5.361C257.948,524.75,255.935,524.349,254.132,525.001z"/>
	<path d="M615.383,522.087c3.014-1.461,6.613,2.138,5.152,5.144c-0.893,2.639-4.609,3.29-6.497,1.353
		C612.051,526.729,612.828,522.997,615.383,522.087 M616.143,525.101c-0.451,1.353,0.008,1.82,1.369,1.394
		C617.963,525.118,617.504,524.65,616.143,525.101z"/>
	<path d="M255.409,526.111c2.672-1.086,5.862,1.019,5.553,3.975c-0.025,3.248-4.526,4.826-6.714,2.547
		C252.211,530.813,252.896,527.138,255.409,526.111 M256.812,528.65c-1.603,0.242-0.944,2.706,0.551,2.221
		C258.833,530.579,258.257,528.182,256.812,528.65z"/>
	<path d="M531.496,538.445c5.574-0.013,8.572-0.051,16.484,0.058c2.655,4.743,5.444,9.411,8.117,14.154
		c-2.564,4.693-5.536,9.169-7.841,14.003c-5.419,0.401-10.855,0.008-16.266,0.334c-3.407-4.442-5.803-9.536-8.651-14.337
		C525.984,547.881,528.765,543.179,531.496,538.445 M532.807,541.392c-2.597,3.49-4.476,7.44-6.497,11.273
		c2.021,3.824,3.916,7.774,6.488,11.273c4.392,1.286,9.11,0.426,13.636,0.476c2.371-3.849,4.71-7.724,6.764-11.757
		c-2.037-4.033-4.376-7.899-6.772-11.724C541.9,540.925,537.19,540.107,532.807,541.392z"/>
	<path d="M318.045,540.223c2.089-0.074,15.474-0.154,16.475-0.159c2.789,4.743,5.503,9.528,8.258,14.287
		c-7.238,12.766-7.177,12.572-8.033,13.711c-1.138,0.774-15.351,0.415-16.717,0.384c-3.268-5.981-6.696-11.051-7.783-14.112
		C311.125,551.634,313.96,547.754,318.045,540.223 M319.556,542.687c-2.338,3.858-4.651,7.732-6.689,11.757
		c2.113,3.941,4.384,7.791,6.672,11.64c4.551-0.017,9.26,0.76,13.711-0.376c2.622-3.532,4.501-7.54,6.664-11.356
		c-2.196-3.808-4.05-7.849-6.697-11.356C328.783,541.818,324.082,542.52,319.556,542.687z"/>
	<path d="M537.583,546.929c4.108-1.62,8.943,2.096,8.108,6.522c-0.251,4.801-6.948,6.972-10.187,3.607
		C532.297,554.21,533.458,548.24,537.583,546.929 M537.666,549.492c-2.33,1.328-2.28,4.977,0,6.33
		c2.305,1.678,5.954-0.301,5.762-3.165C543.62,549.793,539.979,547.78,537.666,549.492z"/>
	<path d="M323.915,548.816c4.543-2.338,10.02,2.689,8.217,7.398c-1.161,4.785-8.609,5.653-10.922,1.378
		C319.156,554.594,320.634,550.21,323.915,548.816 M324.675,551.045c-2.397,1.094-2.906,4.785-0.61,6.271
		c2.238,2.021,6.304,0,6.062-2.989C330.211,551.672,326.996,549.576,324.675,551.045z"/>
	<path d="M532.356,617.288c5.495,0.184,10.997-0.025,16.5,0.167c2.096,5.027,5.887,9.244,7.59,14.404
		c-2.171,4.852-5.269,9.219-7.799,13.887c-11.709,0-13.394,0.306-16.458-0.251c-2.939-4.351-5.511-8.985-7.933-13.636
		C526.277,626.691,529.65,622.123,532.356,617.288 M533.775,620.061c-2.563,3.657-5.227,7.549-6.53,11.832
		c1.62,4.05,4.208,7.624,6.296,11.44c4.526,0.15,9.06,0.134,13.594,0.025c2.238-3.799,4.835-7.432,6.513-11.523
		c-1.361-4.359-4.384-8.033-6.547-12.033C542.668,619.844,538.167,619.309,533.775,620.061z"/>
	<path d="M321.886,622.449c5.67-0.008,11.373-0.367,17.018,0.301c2.28,4.81,5.687,9.068,7.607,14.029
		c-2.605,4.71-5.01,9.661-8.283,13.928c-3.065,0.28-4.951-0.033-16.074,0.092c-4.551-7.745-5.06-8.946-8.158-14.037
		C317.316,630.194,319.746,627.11,321.886,622.449 M323.748,624.779c-8.799,13.601-8.144,10.593-0.017,23.615
		c4.292-0.05,8.601,0.326,12.885-0.125c1.69-1.496,7.881-10.745,6.421-13.185c-1.929-3.49-3.582-7.348-6.421-10.179
		C332.341,624.445,328.04,624.812,323.748,624.779z"/>
	<path d="M538.585,625.806c4.601-1.703,9.645,3.708,7.423,8.158c-1.536,4.484-8.434,4.943-10.772,0.944
		C533.132,631.701,534.836,626.816,538.585,625.806 M539.278,628.035c-2.589,0.66-3.532,4.275-1.645,6.154
		c1.779,2.138,5.787,1.219,6.396-1.52C544.981,629.998,541.917,626.992,539.278,628.035z"/>
	<path d="M328.191,630.874c4.259-1.812,9.21,2.447,8.058,6.914c-0.626,4.275-6.238,6.355-9.553,3.641
		C322.863,638.882,323.815,632.277,328.191,630.874 M328.942,633.079c-2.196,0.902-3.29,4.008-1.486,5.837
		c1.595,2.321,5.378,1.653,6.371-0.893C335.247,635.191,331.823,631.634,328.942,633.079z"/>
	<path d="M793.219,641.755c5.29,0.035,24.459,0.064,24.842,0.075c2.396,4.142,10.797,18.477,12.075,21.143
		c-1.334,3.58-8.204,14.285-12.049,21.56c-2.963,0.066-20.695,0.107-24.892-0.008c-5.338-9.623-9.517-16.262-12.267-21.485
		C781.055,662.814,789.287,648.646,793.219,641.755 M795.716,649.02c-2.697,4.576-5.636,9.077-7.799,13.928
		c0.593,2.604,7.407,13.845,8.651,15.473c5.854,1.202,12.016,0.284,17.995,0.459c11.343-19.186,9.211-14.44,6.989-19.623
		c-2.422-3.816-4.225-8.05-7.073-11.573c-4.685-0.493-9.411-0.167-14.112-0.242C798.714,647.525,796.518,647.149,795.716,649.02z"/>
	<path d="M801.578,654.113c5.803-2.822,13.436,1.486,13.811,7.975c1.953,12.65-18.186,15.078-19.481,2.463
		C795.132,660.284,797.637,655.825,801.578,654.113 M804.158,659.19c-2.822,1.027-3.799,5.161-1.319,7.073
		c2.296,2.255,6.697,0.643,6.947-2.58C810.346,660.668,806.931,657.971,804.158,659.19z"/>
	<path d="M250.023,655.524c3.112,0.06,20.529,0.123,24.416-0.075c3.833,5.795,6.956,12.033,10.622,17.937
		c1.228,1.787,2.271,3.9,0.818,5.912c-4.058,6.112-7.39,12.667-11.206,18.93c-8.2-0.2-16.392-0.008-24.583-0.058
		c-6.739-11.793-11.633-20.185-12.225-21.201C241.765,669.737,246.232,662.814,250.023,655.524 M251.919,658.673
		c-1.645,2.689-3.315,5.378-4.551,8.284c-1.094,1.169-1.912,2.597-2.38,4.133c-1.294,1.795-2.856,3.624-3.148,5.904
		c0.468,2.263,1.954,4.125,3.248,5.979c0.518,1.536,1.344,2.981,2.413,4.217c1.244,2.622,2.497,5.319,4.434,7.515
		c1.762,0.672,19.648,0.418,20.65,0.259c1.846-1.731,6.834-10.683,7.599-12.809c1.202-1.653,2.271-3.39,3.34-5.127
		c-0.952-1.804-1.987-3.566-3.248-5.169c-0.718-2.096-1.829-4.075-3.273-5.745C272.656,658.555,277.767,657.502,251.919,658.673z"/>
	<path d="M600.661,656.911c2.083-0.47,23.717-0.284,24.725-0.276c6.581,11.741,6.176,10.607,12.175,21.277
		c-11.343,19.723-11.081,19.88-13.578,21.577c-9.333-0.8-20.434,0.281-23.306-0.585c-1.903-2.683-1.732-2.784-12.283-21.009
		C592.545,670.931,596.294,663.716,600.661,656.911 M602.548,659.691c-3.724,5.945-7.206,12.033-10.521,18.212
		c3.332,6.171,6.831,12.267,10.53,18.245c6.856,0.075,13.745,0.443,20.592-0.125c1.358-1.4,10.28-17.11,10.797-18.112
		c-3.298-6.221-6.805-12.325-10.597-18.254C616.41,659.483,609.479,659.458,602.548,659.691z"/>
	<path d="M260.378,668.159c5.728-1.62,11.857,3.883,10.914,9.77c-0.351,5.269-6.096,9.102-11.131,7.615
		C251.607,683.793,250.912,670.517,260.378,668.159 M259.651,671.574c-3.624,1.72-4.409,7.165-1.269,9.753
		c3.056,3.173,8.86,1.319,9.878-2.856C269.864,673.72,263.952,668.91,259.651,671.574z"/>
	<path d="M610.398,669.302c5.444-1.845,11.899,2.764,11.465,8.617c0.376,5.753-5.929,10.288-11.306,8.592
		C602.414,684.52,601.444,671.995,610.398,669.302 M611.074,672.15c-4.534,1.319-5.62,7.933-1.678,10.572
		c3.415,2.872,9.144,0.276,9.544-4.058C619.692,674.463,615.065,670.597,611.074,672.15z"/>
	<path d="M766.557,823.641c6.163-0.033,12.333-0.008,18.504-0.058c6.661,11.656,7.524,12.986,9.144,16.266
		c-3.566,4.743-5.828,10.321-9.286,15.139c-4.877,0.351-9.762,0.1-14.638,0.184c-1.595-0.134-3.875,0.418-4.559-1.503
		c-2.605-4.852-5.87-9.402-7.991-14.471C760.419,833.879,763.709,828.877,766.557,823.641 M769.88,829.395
		c-1.662,3.482-4.634,6.563-5.261,10.404c1.486,3.365,3.24,6.806,5.745,9.536c12.651,1.084,11.415-0.496,12.859-2.438
		c1.378-2.522,3.198-4.918,3.966-7.707c-1.495-3.457-3.649-6.555-5.486-9.82C777.763,829.278,773.813,829.261,769.88,829.395z"/>
	<path d="M773.963,831.858c4.793-1.403,10.112,2.939,9.519,7.95c0.183,10.306-16.916,9.399-15.373-1.378
		C768.486,835.323,770.866,832.509,773.963,831.858 M774.732,837.511c-2.747,1.386,0.459,5.728,2.405,3.39
		C779.099,839.473,776.794,836.142,774.732,837.511z"/>
	<path d="M810.496,843.824c6.271-1.561,12.826-0.484,19.222-0.81c2.864,5.394,6.572,10.38,8.977,15.999
		c-2.413,5.227-5.77,9.979-8.4,15.106c-1.946,0.906-2.087,0.651-18.872,0.651c-8.024-13.87-8.094-13.743-8.943-15.724
		C804.651,853.719,808.601,849.277,810.496,843.824 M814.838,849.21c-2.405,2.956-3.925,6.505-5.854,9.778
		c1.87,3.357,3.808,6.68,5.77,9.987c3.774,0.092,7.574,0.367,11.348-0.033c1.253-1.263,6.664-9.254,5.536-10.989
		c-1.495-3.206-3.482-6.154-5.294-9.177C822.537,848.951,818.471,848.099,814.838,849.21z"/>
	<path d="M817.368,851.89c5.236-2.689,12.008,2.23,10.906,8.058c-0.376,5.695-7.858,8.743-12.25,5.261
		C811.281,862.086,812.133,854.02,817.368,851.89 M819.431,857.276c-1.253,0.802-0.585,2.313-0.551,3.499
		c1.069-0.159,2.73,0.576,3.407-0.618C823.89,858.504,821.009,855.598,819.431,857.276z"/>
	<path d="M377.374,962.106c6.103-12.383,11.187-10.811,119.075-10.313c11.692,0.361,22.843,7.42,20.533,18.755
		c-15.816,89.294-14.837,89.781-21.252,96.596c-13.405,16.845-79.203,11.394-89.457,6.547
		c-16.273-7.339-14.283-16.879-29.36-100.112C376.163,969.813,375.52,965.663,377.374,962.106 M383.052,963.693
		c-2.271,3.215-0.676,7.198-0.192,10.705c0.883,4.314,10.569,61.113,12.233,67.161l-0.259,0.459
		c1.361,5.269,1.395,10.88,3.616,15.916c5.732,12.768,16.525,12.668,31.881,14.279c12.336,1.082,25.104,0.897,37.46-0.501
		c11.479-1.134,25.718-2.36,28.717-18.905c16.638-93.103,16.895-86.394,12.033-91.236c-7.97-6.722-12.894-3.295-108.88-4.15
		C393.69,957.246,386.743,958.515,383.052,963.693z"/>
</g>
</svg>
